<svg xmlns="http://www.w3.org/2000/svg" xmlns:xlink="http://www.w3.org/1999/xlink" viewBox="0 0 600 152.56"><defs><style>.a{fill:#f9f9f9;}.b,.d,.h,.i{font-size:23px;}.b,.d,.i{font-family:NotoSansCJKkr-Regular-KSCpc-EUC-H, Noto Sans CJK KR;}.c{fill:url(#a);}.d,.e{fill:#e84343;}.f,.j,.k{fill:none;stroke-miterlimit:10;}.f{stroke:#e6e6e6;}.g{fill:url(#b);}.h{font-family:NotoSansCJKkr-Bold-KSCpc-EUC-H, Noto Sans CJK KR;letter-spacing:-0.03em;}.i{fill:#4d4d4d;}.j{stroke:gray;}.k{stroke:#666;}</style><linearGradient id="a" x1="63.5" y1="61" x2="63.5" y2="28" gradientTransform="translate(79.98 -31.27) rotate(67.25)" gradientUnits="userSpaceOnUse"><stop offset="0" stop-color="#fde055"/><stop offset="1" stop-color="#ed345c"/></linearGradient><linearGradient id="b" x1="81.5" y1="168" x2="81.5" y2="135" gradientTransform="translate(189.69 17.75) rotate(67.25)" xlink:href="#a"/></defs><title>facebook_angry</title><circle class="a" cx="63.5" cy="103.5" r="30"/><text class="b" transform="translate(52.5 112.5)">앗</text><circle class="c" cx="63.5" cy="44.5" r="16.5" transform="translate(-2.1 57.85) rotate(-67.25)"/><path d="M58.44,48.41A1.47,1.47,0,1,1,57,46.94,1.47,1.47,0,0,1,58.44,48.41Z" transform="translate(0 -28)"/><circle cx="70.02" cy="20.41" r="1.46"/><path d="M53,44.48l-.54.76s3,3.26,9.49,3.15V47.31S56.65,47.91,53,44.48Z" transform="translate(0 -28)"/><path d="M65.58,47.39v1A13.93,13.93,0,0,0,75,45.2l-.69-.69S72.09,47.16,65.58,47.39Z" transform="translate(0 -28)"/><rect x="59.48" y="25.88" width="8.14" height="1.22"/><text class="d" transform="translate(93.23 25.06)">1</text><rect class="e" x="27" y="51" width="99" height="4"/><line class="f" y1="55" x2="600" y2="55"/><circle class="g" cx="81.5" cy="151.5" r="16.5" transform="translate(-89.73 140.06) rotate(-67.25)"/><path d="M76.44,155.41A1.47,1.47,0,1,1,75,153.94,1.47,1.47,0,0,1,76.44,155.41Z" transform="translate(0 -28)"/><circle cx="88.02" cy="127.41" r="1.46"/><path d="M71,151.48l-.54.76s3,3.26,9.49,3.15v-1.08S74.65,154.91,71,151.48Z" transform="translate(0 -28)"/><path d="M83.58,154.39v1A13.93,13.93,0,0,0,93,152.2l-.69-.69S90.09,154.16,83.58,154.39Z" transform="translate(0 -28)"/><rect x="77.48" y="132.88" width="8.14" height="1.22"/><text class="h" transform="translate(121.69 100.06)">박●●</text><text class="i" transform="translate(121.76 128.45)">함께 아는 친구 99명</text><rect class="j" x="406.5" y="79.5" width="164.5" height="48.5" rx="8.62"/><text class="i" transform="translate(486.73 112.65)">언급</text><path class="k" d="M474.75,120h-11.5a5.25,5.25,0,0,0-5.25,5.25v8.5a5.22,5.22,0,0,0,4.5,5.17v4.58l3.21-4.5h9a5.25,5.25,0,0,0,5.25-5.25v-8.5A5.25,5.25,0,0,0,474.75,120Z" transform="translate(0 -28)"/></svg>